<svg width="163.023560" height="39.041016" viewBox="0 0 163.024 39.041" fill="none" xmlns="http://www.w3.org/2000/svg" xmlns:xlink="http://www.w3.org/1999/xlink">
	<desc>
			Created with Pixso.
	</desc>
	<defs/>
	<rect id="arrow-up-right-01" rx="15.499997" width="30.999994" height="31.000031" transform="translate(0.510620 4.015137) rotate(0.019056)" fill="#ABEF5F" fill-opacity="1.000000"/>
	<path id="Vector" d="M21 14.52L10 25.51" stroke="#1C1C1C" stroke-opacity="1.000000" stroke-width="1.500000" stroke-linecap="round"/>
	<path id="Vector" d="M15 13.65C15 13.65 20.64 13.17 21.49 14.03C22.35 14.88 21.87 20.52 21.87 20.52" stroke="#1C1C1C" stroke-opacity="1.000000" stroke-width="1.500000" stroke-linejoin="round" stroke-linecap="round"/>
	<path id="Rinterio" d="M68.01 8.85C68.01 10.2 66.82 11.3 65.38 11.3C63.94 11.3 62.77 10.2 62.77 8.85C62.77 7.5 63.95 6.4 65.38 6.4C66.82 6.4 68.01 7.5 68.01 8.85ZM141.07 8.87C141.06 10.22 139.88 11.33 138.44 11.32C137 11.32 135.82 10.22 135.82 8.87C135.82 7.53 137 6.43 138.44 6.43C139.88 6.43 141.07 7.53 141.07 8.87ZM46.95 31L42.03 31L42.04 7.72L51.22 7.73C56.51 7.73 59.56 10.7 59.56 15.33C59.56 18.51 58.09 20.82 55.44 21.95L60.38 31L54.95 31L50.54 22.75L46.96 22.75L46.95 31ZM97.55 13.56L100.84 13.56L100.83 17.19L97.54 17.19L97.54 25.65C97.54 26.99 98.21 27.36 99.18 27.36C99.64 27.36 100.14 27.24 100.39 27.19L101.14 30.8C100.66 30.96 99.77 31.21 98.52 31.26C95.01 31.4 92.68 29.71 92.71 26.29L92.71 17.19L90.32 17.19L90.32 13.56L92.71 13.56L92.71 9.38L97.55 9.38L97.55 13.56ZM46.96 11.75L46.96 18.79L50.29 18.8C53.11 18.8 54.49 17.63 54.49 15.33C54.49 13.01 53.12 11.75 50.27 11.75L46.96 11.75ZM127.76 31.02L122.92 31.02L122.92 13.57L127.62 13.57L127.62 16.62L127.8 16.62C128.44 14.45 130.04 13.32 131.99 13.32C132.48 13.32 133.09 13.39 133.52 13.49L133.51 17.78C133.06 17.64 132.14 17.53 131.47 17.53C129.33 17.52 127.76 19 127.76 21.15L127.76 31.02ZM79.8 17.35C77.84 17.35 76.5 18.66 76.49 20.91L76.49 31.01L71.64 31.01L71.65 13.55L76.27 13.55L76.26 16.63L76.47 16.63C77.25 14.6 79.12 13.33 81.72 13.33C85.35 13.33 87.74 15.83 87.74 19.89L87.74 31.01L82.89 31.01L82.9 20.76C82.91 18.63 81.74 17.35 79.8 17.35ZM119.66 26.02C118.98 29.26 116.06 31.36 111.74 31.36C106.37 31.36 103.09 27.9 103.09 22.37C103.09 16.98 106.42 13.34 111.56 13.34C116.17 13.34 119.76 16.27 119.76 22.2L119.76 23.53L107.87 23.53L107.87 23.54C107.87 26.14 109.41 27.74 111.83 27.75C113.44 27.75 114.69 27.05 115.18 25.72L119.66 26.02ZM161.18 22.38C161.18 27.75 157.89 31.38 152.59 31.38C147.29 31.37 144 27.75 144 22.37C144 16.96 147.3 13.35 152.6 13.35C157.89 13.35 161.18 16.96 161.18 22.38ZM67.78 31L62.94 31L62.94 13.55L67.79 13.55L67.78 31ZM140.84 31.03L136 31.03L136 13.57L140.84 13.58L140.84 31.03ZM111.64 16.95C109.49 16.95 107.98 18.54 107.87 20.53L115.21 20.53C115.19 18.45 113.74 16.95 111.64 16.95ZM148.92 22.34C148.92 25.38 150.17 27.63 152.61 27.63C155.01 27.63 156.26 25.39 156.27 22.34C156.27 19.29 155.02 17.04 152.62 17.04C150.17 17.04 148.92 19.29 148.92 22.34Z" fill="#212121" fill-opacity="1.000000" fill-rule="evenodd"/>
</svg>
